0
SECTION
2
HEADER
9
$INSUNITS
70
4
9
$ACADVER
1
AC1014
9
$HANDSEED
5
FFFF
0
ENDSEC
0
SECTION
2
TABLES
0
TABLE
2
VPORT
5
8
100
AcDbSymbolTable
0
ENDTAB
0
TABLE
2
LTYPE
5
5
100
AcDbSymbolTable
0
LTYPE
5
14
100
AcDbSymbolTableRecord
100
AcDbLinetypeTableRecord
2
BYBLOCK
70
0
0
LTYPE
5
15
100
AcDbSymbolTableRecord
100
AcDbLinetypeTableRecord
2
BYLAYER
70
0
0
LTYPE
5
16
100
AcDbSymbolTableRecord
100
AcDbLinetypeTableRecord
2
DASHED
70
0
3
Dashed __ __ __ __ __ __ __ __ __ __ __ __ __ _
72
65
73
2
40
0.75
49
0.5
74
0
49
-0.25
74
0
0
ENDTAB
0
TABLE
2
LAYER
5
2
100
AcDbSymbolTable
70
2
0
LAYER
5
50
100
AcDbSymbolTableRecord
100
AcDbLayerTableRecord
2
0
70
0
62
7
6
CONTINUOUS
0
ENDTAB
0
TABLE
2
STYLE
5
3
100
AcDbSymbolTable
70
1
0
STYLE
5
11
100
AcDbSymbolTableRecord
100
AcDbTextStyleTableRecord
2
STANDARD
70
0
0
ENDTAB
0
TABLE
2
VIEW
5
6
100
AcDbSymbolTable
70
0
0
ENDTAB
0
TABLE
2
UCS
5
7
100
AcDbSymbolTable
70
0
0
ENDTAB
0
TABLE
2
APPID
5
9
100
AcDbSymbolTable
70
2
0
APPID
5
12
100
AcDbSymbolTableRecord
100
AcDbRegAppTableRecord
2
ACAD
70
0
0
ENDTAB
0
TABLE
2
DIMSTYLE
5
A
100
AcDbSymbolTable
70
1
0
ENDTAB
0
TABLE
2
BLOCK_RECORD
5
1
100
AcDbSymbolTable
70
1
0
BLOCK_RECORD
5
1F
100
AcDbSymbolTableRecord
100
AcDbBlockTableRecord
2
*MODEL_SPACE
0
BLOCK_RECORD
5
1B
100
AcDbSymbolTableRecord
100
AcDbBlockTableRecord
2
*PAPER_SPACE
0
ENDTAB
0
ENDSEC
0
SECTION
2
BLOCKS
0
BLOCK
5
20
100
AcDbEntity
100
AcDbBlockBegin
2
*MODEL_SPACE
0
ENDBLK
5
21
100
AcDbEntity
100
AcDbBlockEnd
0
BLOCK
5
1C
100
AcDbEntity
100
AcDbBlockBegin
2
*PAPER_SPACE
0
ENDBLK
5
1D
100
AcDbEntity
100
AcDbBlockEnd
0
ENDSEC
0
SECTION
2
ENTITIES
0
LWPOLYLINE
5
100
100
AcDbEntity
8
0
100
AcDbPolyline
90
20
70
1
43
0.0
10
-89.110059999999891
20
-16.550010999999994
10
-103.48506999999991
20
-16.550010999999994
10
-103.48506999999989
20
-18.200011999999948
42
-0.41421356237325763
10
-103.5850699999999
20
-18.300011999999978
10
-110.58507499999993
20
-18.300011999999985
42
-0.41421356237312101
10
-110.68507499999994
20
-18.200011999999976
10
-110.68507499999988
20
-16.550010999999994
10
-111.66007499999991
20
-16.550010999999959
42
-0.41421356237319906
10
-111.7600749999999
20
-16.450010999999961
10
-111.7600749999999
20
-2.5500009999999995
42
-0.41421356237320234
10
-111.66007499999991
20
-2.4500009999999999
10
-88.235058999999993
20
-2.4500010000000021
42
-0.41421356237297796
10
-88.135058999999984
20
-2.5500009999999955
10
-88.135058999999927
20
-3.5000019999999754
10
-79.785054000000002
20
-3.5000019999999887
42
-0.41421356237307061
10
-79.68505399999998
20
-3.6000019999999959
10
-79.685053999999994
20
-18.200011999999976
42
-0.4142135623730625
10
-79.785054000000002
20
-18.300011999999978
10
-89.010059999999896
20
-18.300011999999974
42
-0.41421356237319906
10
-89.110059999999891
20
-18.200011999999976
0
LWPOLYLINE
5
101
100
AcDbEntity
8
0
100
AcDbPolyline
90
8
70
1
43
0.0
10
-59.725001999999741
20
-16.575011000000003
42
0.4142135623722496
10
-59.625002000000023
20
-16.475011000000002
10
-59.625002000000009
20
-2.5750010000000003
42
0.41421356237309992
10
-59.725002000000018
20
-2.4750009999999989
10
-73.625011000000015
20
-2.4750009999999998
42
0.41421356237305113
10
-73.725011000000009
20
-2.575000999999999
10
-73.725011000000009
20
-16.475011000000002
42
0.41421356237304952
10
-73.625011000000015
20
-16.575011000000003
0
LWPOLYLINE
5
102
100
AcDbEntity
8
0
100
AcDbPolyline
90
8
70
1
43
0.0
10
-193.07500199999976
20
-16.575011000000003
42
0.41421356237204798
10
-192.97500200000002
20
-16.475011000000002
10
-192.97500200000005
20
-2.5750010000000003
42
0.4142135623731113
10
-193.07500200000004
20
-2.4750009999999989
10
-206.97501100000005
20
-2.4750009999999998
42
0.41421356237285928
10
-207.07501100000005
20
-2.575000999999999
10
-207.07501100000005
20
-16.475011000000002
42
0.41421356237314055
10
-206.97501100000005
20
-16.575011000000003
0
LWPOLYLINE
5
103
100
AcDbEntity
8
0
100
AcDbPolyline
90
8
70
1
43
0.0
10
-40.675001999999729
20
-16.575011000000003
42
0.41421356237228207
10
-40.575002000000026
20
-16.475011000000002
10
-40.575002000000005
20
-2.5750010000000003
42
0.41421356237313894
10
-40.675002000000013
20
-2.4750009999999989
10
-54.575011000000003
20
-2.4750009999999998
42
0.41421356237314216
10
-54.675011000000005
20
-2.575000999999999
10
-54.675011000000005
20
-16.475011000000002
42
0.41421356237313406
10
-54.575011000000003
20
-16.575011000000003
0
LWPOLYLINE
5
104
100
AcDbEntity
8
0
100
AcDbPolyline
90
8
70
1
43
0.0
10
-269.27500199999974
20
-35.625011000000001
42
0.41421356237205448
10
-269.17500200000001
20
-35.525011000000006
10
-269.17500200000001
20
-21.625001000000005
42
0.41421356237312101
10
-269.27500200000003
20
-21.525001000000003
10
-283.17501100000004
20
-21.525001000000003
42
0.41421356237286089
10
-283.27501100000001
20
-21.625001000000005
10
-283.27501100000001
20
-35.525011000000006
42
0.41421356237313406
10
-283.17501100000004
20
-35.625011000000001
0
LWPOLYLINE
5
105
100
AcDbEntity
8
0
100
AcDbPolyline
90
8
70
1
43
0.0
10
-174.02500199999974
20
-35.625011000000001
42
0.41421356237205448
10
-173.92500200000001
20
-35.525011000000006
10
-173.92500200000003
20
-21.625001000000005
42
0.41421356237312101
10
-174.02500200000003
20
-21.525001000000003
10
-187.92501100000004
20
-21.525001000000003
42
0.41421356237286089
10
-188.02501100000003
20
-21.625001000000005
10
-188.02501100000003
20
-35.525011000000006
42
0.41421356237313406
10
-187.92501100000004
20
-35.625011000000001
0
LWPOLYLINE
5
106
100
AcDbEntity
8
0
100
AcDbPolyline
90
20
70
1
43
0.0
10
-120.47008099999991
20
-18.305012000000001
42
0.41421356237321211
10
-120.37008099999991
20
-18.205012
10
-120.37008099999991
20
-3.6000000000000005
42
0.41421356237320395
10
-120.47008099999991
20
-3.5000000000000031
10
-126.29758497710426
20
-3.5000000000000009
10
-126.29758497709992
20
-2.5750010000000003
42
0.41421356237305113
10
-126.3975849770999
20
-2.4750010000000033
10
-140.29759502290028
20
-2.4750009999999998
42
0.41421356237315843
10
-140.3975950229003
20
-2.5750010000000012
10
-140.39759502289576
20
-3.5000000000000009
10
-146.22509899999986
20
-3.5000000000000004
42
0.41421356237312429
10
-146.32509899999985
20
-3.600000000000001
10
-146.32509899999985
20
-18.205000000000002
42
0.41421356237312101
10
-146.22509899999986
20
-18.305
10
-139.42509399999986
20
-18.305000000000003
42
0.41421356237321211
10
-139.32509399999986
20
-18.205000000000002
10
-139.32509399999986
20
-16.580010999999981
10
-127.37008599999984
20
-16.580010999999985
10
-127.3700859999999
20
-18.205012
42
0.41421356237312101
10
-127.27008599999991
20
-18.305011999999998
0
LWPOLYLINE
5
107
100
AcDbEntity
8
0
100
AcDbPolyline
90
20
70
1
43
0.0
10
-163.21010999999976
20
-18.200012000000886
10
-163.21010999999982
20
-16.550011000000669
10
-177.58511999999982
20
-16.550011000000996
10
-177.58511999999979
20
-18.200012000001319
42
-0.41421356237285439
10
-177.68511999999981
20
-18.300012000001317
10
-186.91012599999968
20
-18.300012000001612
42
-0.41421356237329665
10
-187.0101259999997
20
-18.2000120000016
10
-187.01012600000016
20
-3.6000020000016186
42
-0.41421356237285439
10
-186.91012600000016
20
-3.5000020000016212
10
-178.56012100000009
20
-3.5000020000010013
10
-178.56012100000012
20
-2.550001000001485
42
-0.41421356237351453
10
-178.46012100000021
20
-2.4500010000013663
10
-155.03510500000027
20
-2.4500010000006558
42
-0.41421356237320234
10
-154.93510500000028
20
-2.5500010000006545
10
-154.93510499999985
20
-16.450011000000615
42
-0.41421356237319906
10
-155.03510499999985
20
-16.550011000000616
10
-156.01010499999984
20
-16.550011000000506
10
-156.01010499999975
20
-18.200012000000665
42
-0.41421356237313406
10
-156.11010499999975
20
-18.300012000000663
10
-163.11010999999976
20
-18.300012000000894
42
-0.41421356237328361
0
LWPOLYLINE
5
108
100
AcDbEntity
8
0
100
AcDbPolyline
90
8
70
1
43
0.0
10
-2.5750019999997251
20
-35.625011000000001
42
0.41421356237227236
10
-2.4750019999999995
20
-35.525011000000006
10
-2.4750020000000017
20
-21.625001000000005
42
0.41421356237311618
10
-2.5750020000000085
20
-21.525001000000003
10
-16.475011000000002
20
-21.525001000000003
42
0.41421356237310153
10
-16.575011000000003
20
-21.625001000000005
10
-16.575011000000003
20
-35.525011000000006
42
0.41421356237308854
10
-16.475011000000002
20
-35.625011000000001
0
LWPOLYLINE
5
109
100
AcDbEntity
8
0
100
AcDbPolyline
90
8
70
1
43
0.0
10
-40.675001999999729
20
-35.625011000000001
42
0.41421356237227558
10
-40.575002000000012
20
-35.525011000000006
10
-40.575002000000005
20
-21.625001000000005
42
0.41421356237312101
10
-40.675002000000013
20
-21.525001000000003
10
-54.575011000000003
20
-21.525001000000003
42
0.41421356237310802
10
-54.675011000000005
20
-21.625001000000005
10
-54.675011000000005
20
-35.525011000000006
42
0.41421356237314705
10
-54.575011000000003
20
-35.625011000000001
0
LWPOLYLINE
5
110
100
AcDbEntity
8
0
100
AcDbPolyline
90
8
70
1
43
0.0
10
-2.5750019999997251
20
-16.575011000000003
42
0.41421356237229673
10
-2.4750020000000021
20
-16.475011000000002
10
-2.4750020000000017
20
-2.5750010000000003
42
0.41421356237311779
10
-2.5750020000000085
20
-2.4750009999999989
10
-16.475011000000002
20
-2.4750009999999998
42
0.41421356237311618
10
-16.575011000000003
20
-2.5750010000000012
10
-16.575011000000003
20
-16.475011000000002
42
0.41421356237310153
10
-16.475011000000002
20
-16.575011000000003
0
LWPOLYLINE
5
111
100
AcDbEntity
8
0
100
AcDbPolyline
90
8
70
1
43
0.0
10
-59.725001999999741
20
-35.625011000000001
42
0.41421356237222356
10
-59.625002000000009
20
-35.525011000000006
10
-59.625002000000009
20
-21.625001000000005
42
0.41421356237301699
10
-59.725002000000018
20
-21.525001000000003
10
-73.625011000000015
20
-21.525001000000003
42
0.41421356237314705
10
-73.725011000000009
20
-21.625001000000005
10
-73.725011000000009
20
-35.525011000000006
42
0.41421356237305601
10
-73.625011000000015
20
-35.625011000000001
0
LWPOLYLINE
5
112
100
AcDbEntity
8
0
100
AcDbPolyline
90
8
70
1
43
0.0
10
-2.5750019999997251
20
-54.675011000000005
42
0.41421356237233087
10
-2.4750019999999973
20
-54.575011000000003
10
-2.4750020000000017
20
-40.675001000000009
42
0.41421356237312429
10
-2.5750020000000085
20
-40.575001
10
-16.475011000000002
20
-40.575001
42
0.41421356237312756
10
-16.575011000000003
20
-40.675001000000009
10
-16.575011000000003
20
-54.575011000000003
42
0.41421356237304952
10
-16.475011000000002
20
-54.675011000000005
0
LWPOLYLINE
5
113
100
AcDbEntity
8
0
100
AcDbPolyline
90
8
70
1
43
0.0
10
-78.775001999999731
20
-35.625011000000001
42
0.41421356237227558
10
-78.675002000000021
20
-35.525011000000006
10
-78.675002000000006
20
-21.625001000000005
42
0.41421356237312101
10
-78.775002000000015
20
-21.525001000000003
10
-92.675011000000012
20
-21.525001000000003
42
0.41421356237310802
10
-92.775011000000021
20
-21.625001000000005
10
-92.775011000000021
20
-35.525011000000006
42
0.41421356237299095
10
-92.675011000000012
20
-35.625011000000001
0
LWPOLYLINE
5
114
100
AcDbEntity
8
0
100
AcDbPolyline
90
8
70
1
43
0.0
10
-174.02500199999977
20
-92.775011000000021
42
0.41421356237236662
10
-173.92500200000001
20
-92.675011000000012
10
-173.92500200000003
20
-78.775001000000017
42
0.41421356237312101
10
-174.02500200000003
20
-78.675001000000009
10
-187.92501100000004
20
-78.675001000000009
42
0.41421356237338119
10
-188.02501100000003
20
-78.775001000000032
10
-188.02501100000003
20
-92.675011000000012
42
0.41421356237309503
10
-187.92501100000004
20
-92.775011000000021
0
LWPOLYLINE
5
115
100
AcDbEntity
8
0
100
AcDbPolyline
90
8
70
1
43
0.0
10
-250.22500199999973
20
-54.675011000000005
42
0.41421356237223655
10
-250.12500200000002
20
-54.575011000000003
10
-250.12500200000005
20
-40.675001000000009
42
0.41421356237312101
10
-250.22500200000002
20
-40.575001
10
-264.12501100000003
20
-40.575001
42
0.41421356237291296
10
-264.22501100000005
20
-40.675001000000009
10
-264.22501100000005
20
-54.575011000000003
42
0.41421356237327711
10
-264.12501100000003
20
-54.675011000000005
0
LWPOLYLINE
5
116
100
AcDbEntity
8
0
100
AcDbPolyline
90
8
70
1
43
0.0
10
-154.97500199999973
20
-73.725011000000009
42
0.41421356237226259
10
-154.87500200000002
20
-73.625011000000015
10
-154.87500200000002
20
-59.725001000000013
42
0.41421356237317308
10
-154.97500200000002
20
-59.625001000000012
10
-168.87501100000003
20
-59.625001000000005
42
0.41421356237286089
10
-168.97501100000002
20
-59.725001000000013
10
-168.97501100000002
20
-73.625011000000015
42
0.41421356237312101
10
-168.87501100000003
20
-73.725011000000009
0
LWPOLYLINE
5
117
100
AcDbEntity
8
0
100
AcDbPolyline
90
8
70
1
43
0.0
10
-97.825001999999742
20
-54.675011000000005
42
0.4142135623723146
10
-97.725002000000032
20
-54.575011000000003
10
-97.725002000000032
20
-40.675001000000009
42
0.41421356237327711
10
-97.825002000000026
20
-40.575001
10
-111.72501100000002
20
-40.575001
42
0.41421356237314705
10
-111.82501100000003
20
-40.675001000000009
10
-111.82501100000003
20
-54.575011000000003
42
0.41421356237296497
10
-111.72501100000002
20
-54.675011000000005
0
LWPOLYLINE
5
118
100
AcDbEntity
8
0
100
AcDbPolyline
90
8
70
1
43
0.0
10
-250.22500199999973
20
-73.725011000000009
42
0.41421356237234064
10
-250.12500200000005
20
-73.625011000000015
10
-250.12500200000005
20
-59.725001000000013
42
0.41421356237312101
10
-250.22500200000002
20
-59.625001000000012
10
-264.12501100000003
20
-59.625001000000005
42
0.41421356237291296
10
-264.22501100000005
20
-59.725001000000013
10
-264.22501100000005
20
-73.625011000000015
42
0.41421356237327711
10
-264.12501100000003
20
-73.725011000000009
0
LWPOLYLINE
5
119
100
AcDbEntity
8
0
100
AcDbPolyline
90
8
70
1
43
0.0
10
-154.97500199999973
20
-54.675011000000005
42
0.4142135623723146
10
-154.87500200000002
20
-54.575011000000003
10
-154.87500200000002
20
-40.675001000000009
42
0.41421356237327711
10
-154.97500200000002
20
-40.575001
10
-168.87501100000003
20
-40.575001
42
0.41421356237335516
10
-168.97501100000002
20
-40.675001000000009
10
-168.97501100000002
20
-54.575011000000003
42
0.41421356237312101
10
-168.87501100000003
20
-54.675011000000005
0
LWPOLYLINE
5
120
100
AcDbEntity
8
0
100
AcDbPolyline
90
8
70
1
43
0.0
10
-250.22500199999979
20
-92.775011000000021
42
0.41421356237252271
10
-250.12500200000005
20
-92.675011000000012
10
-250.12500200000005
20
-78.775001000000017
42
0.41421356237312101
10
-250.22500200000002
20
-78.675001000000009
10
-264.12501100000003
20
-78.675001000000009
42
0.41421356237293894
10
-264.22501100000005
20
-78.775001000000032
10
-264.22501100000005
20
-92.675011000000012
42
0.41421356237325113
10
-264.12501100000003
20
-92.775011000000021
0
LWPOLYLINE
5
121
100
AcDbEntity
8
0
100
AcDbPolyline
90
8
70
1
43
0.0
10
-269.27500199999974
20
-54.675011000000005
42
0.41421356237208046
10
-269.17500200000001
20
-54.575011000000003
10
-269.17500200000001
20
-40.675001000000009
42
0.41421356237312101
10
-269.27500200000003
20
-40.575001
10
-283.17501100000004
20
-40.575001
42
0.41421356237335516
10
-283.27501100000001
20
-40.675001000000009
10
-283.27501100000001
20
-54.575011000000003
42
0.41421356237312101
10
-283.17501100000004
20
-54.675011000000005
0
LWPOLYLINE
5
122
100
AcDbEntity
8
0
100
AcDbPolyline
90
8
70
1
43
0.0
10
-78.775001999999731
20
-92.775011000000021
42
0.41421356237239265
10
-78.675002000000035
20
-92.675011000000012
10
-78.675002000000006
20
-78.775001000000017
42
0.41421356237314705
10
-78.775002000000015
20
-78.675001000000009
10
-92.675011000000012
20
-78.675001000000009
42
0.41421356237317308
10
-92.775011000000021
20
-78.775001000000032
10
-92.775011000000021
20
-92.675011000000012
42
0.41421356237288692
10
-92.675011000000012
20
-92.775011000000021
0
LWPOLYLINE
5
123
100
AcDbEntity
8
0
100
AcDbPolyline
90
8
70
1
43
0.0
10
-21.625001999999725
20
-73.725011000000009
42
0.41421356237228857
10
-21.525002000000004
20
-73.625011000000015
10
-21.525002000000004
20
-59.725001000000013
42
0.41421356237305601
10
-21.625002000000002
20
-59.625001000000012
10
-35.525011000000006
20
-59.625001000000005
42
0.41421356237314705
10
-35.625011000000001
20
-59.725001000000013
10
-35.625011000000001
20
-73.625011000000015
42
0.41421356237305601
10
-35.525011000000006
20
-73.725011000000009
0
LWPOLYLINE
5
124
100
AcDbEntity
8
0
100
AcDbPolyline
90
8
70
1
43
0.0
10
-97.825001999999742
20
-92.775011000000021
42
0.41421356237241869
10
-97.725002000000032
20
-92.675011000000012
10
-97.725002000000032
20
-78.775001000000017
42
0.41421356237327711
10
-97.825002000000026
20
-78.675001000000009
10
-111.72501100000002
20
-78.675001000000009
42
0.41421356237317308
10
-111.82501100000003
20
-78.775001000000032
10
-111.82501100000003
20
-92.675011000000012
42
0.41421356237288692
10
-111.72501100000002
20
-92.775011000000021
0
LWPOLYLINE
5
125
100
AcDbEntity
8
0
100
AcDbPolyline
90
8
70
1
43
0.0
10
-193.07500199999976
20
-35.625011000000001
42
0.41421356237205448
10
-192.97500200000002
20
-35.525011000000006
10
-192.97500200000005
20
-21.625001000000005
42
0.41421356237312101
10
-193.07500200000004
20
-21.525001000000003
10
-206.97501100000005
20
-21.525001000000003
42
0.41421356237286089
10
-207.07501100000005
20
-21.625001000000005
10
-207.07501100000005
20
-35.525011000000006
42
0.41421356237313406
10
-206.97501100000005
20
-35.625011000000001
0
LWPOLYLINE
5
126
100
AcDbEntity
8
0
100
AcDbPolyline
90
8
70
1
43
0.0
10
-40.675001999999729
20
-73.725011000000009
42
0.41421356237226259
10
-40.575002000000012
20
-73.625011000000015
10
-40.575002000000005
20
-59.725001000000013
42
0.41421356237314705
10
-40.675002000000013
20
-59.625001000000012
10
-54.575011000000003
20
-59.625001000000005
42
0.414213562373069
10
-54.675011000000005
20
-59.725001000000013
10
-54.675011000000005
20
-73.625011000000015
42
0.41421356237314705
10
-54.575011000000003
20
-73.725011000000009
0
LWPOLYLINE
5
127
100
AcDbEntity
8
0
100
AcDbPolyline
90
8
70
1
43
0.0
10
-59.725001999999741
20
-92.775011000000021
42
0.41421356237244467
10
-59.625002000000016
20
-92.675011000000012
10
-59.625002000000009
20
-78.775001000000017
42
0.41421356237309503
10
-59.725002000000018
20
-78.675001000000009
10
-73.625011000000015
20
-78.675001000000009
42
0.41421356237309503
10
-73.725011000000009
20
-78.775001000000032
10
-73.725011000000009
20
-92.675011000000012
42
0.41421356237309503
10
-73.625011000000015
20
-92.775011000000021
0
LWPOLYLINE
5
128
100
AcDbEntity
8
0
100
AcDbPolyline
90
8
70
1
43
0.0
10
-78.775001999999731
20
-54.675011000000005
42
0.41421356237221058
10
-78.675002000000006
20
-54.575011000000003
10
-78.675002000000006
20
-40.675001000000009
42
0.41421356237314705
10
-78.775002000000015
20
-40.575001
10
-92.675011000000012
20
-40.575001
42
0.41421356237314705
10
-92.775011000000021
20
-40.675001000000009
10
-92.775011000000021
20
-54.575011000000003
42
0.41421356237296497
10
-92.675011000000012
20
-54.675011000000005
0
LWPOLYLINE
5
129
100
AcDbEntity
8
0
100
AcDbPolyline
90
8
70
1
43
0.0
10
-174.02500199999974
20
-73.725011000000009
42
0.41421356237202844
10
-173.92500200000001
20
-73.625011000000015
10
-173.92500200000003
20
-59.725001000000013
42
0.41421356237312101
10
-174.02500200000003
20
-59.625001000000012
10
-187.92501100000004
20
-59.625001000000005
42
0.41421356237286089
10
-188.02501100000003
20
-59.725001000000013
10
-188.02501100000003
20
-73.625011000000015
42
0.41421356237312101
10
-187.92501100000004
20
-73.725011000000009
0
LWPOLYLINE
5
130
100
AcDbEntity
8
0
100
AcDbPolyline
90
8
70
1
43
0.0
10
-97.825001999999742
20
-73.725011000000009
42
0.41421356237226259
10
-97.725002000000032
20
-73.625011000000015
10
-97.725002000000032
20
-59.725001000000013
42
0.41421356237317308
10
-97.825002000000026
20
-59.625001000000012
10
-111.72501100000002
20
-59.625001000000005
42
0.41421356237299095
10
-111.82501100000003
20
-59.725001000000013
10
-111.82501100000003
20
-73.625011000000015
42
0.41421356237296497
10
-111.72501100000002
20
-73.725011000000009
0
LWPOLYLINE
5
131
100
AcDbEntity
8
0
100
AcDbPolyline
90
8
70
1
43
0.0
10
-78.775001999999731
20
-73.725011000000009
42
0.41421356237226259
10
-78.675002000000021
20
-73.625011000000015
10
-78.675002000000006
20
-59.725001000000013
42
0.41421356237314705
10
-78.775002000000015
20
-59.625001000000012
10
-92.675011000000012
20
-59.625001000000005
42
0.41421356237299095
10
-92.775011000000021
20
-59.725001000000013
10
-92.775011000000021
20
-73.625011000000015
42
0.41421356237296497
10
-92.675011000000012
20
-73.725011000000009
0
LWPOLYLINE
5
132
100
AcDbEntity
8
0
100
AcDbPolyline
90
20
70
1
43
0.0
10
-258.40014799999972
20
-18.225012
10
-258.40014799999972
20
-16.575011000000003
10
-275.00015999999982
20
-16.575010999999979
10
-275.00015999999977
20
-18.225012
42
-0.41421356237286089
10
-275.10015999999979
20
-18.325012000000001
10
-282.10016399999972
20
-18.32501199999999
42
-0.41421356237312101
10
-282.20016399999969
20
-18.225012
10
-282.20016399999975
20
-3.600000000000001
42
-0.41421356237286089
10
-282.10016399999972
20
-3.5000000000000004
10
-273.75015899999983
20
-3.5000000000000031
10
-273.75015899999977
20
-2.5750010000000012
42
-0.41421356237286089
10
-273.65015899999975
20
-2.4750009999999998
10
-259.75014899999974
20
-2.4750009999999327
42
-0.41421356237293405
10
-259.65014899999971
20
-2.5750010000000003
10
-259.65014899999971
20
-3.5000000000000009
10
-251.30014399999993
20
-3.4999999999999325
42
-0.41421356237293572
10
-251.20014399999988
20
-3.6000000000000005
10
-251.20014399999991
20
-18.225012
42
-0.41421356237286089
10
-251.30014399999993
20
-18.325012000000001
10
-258.30014799999969
20
-18.32501199999999
42
-0.41421356237312101
0
LWPOLYLINE
5
133
100
AcDbEntity
8
0
100
AcDbPolyline
90
8
70
1
43
0.0
10
-174.02500199999974
20
-54.675011000000005
42
0.41421356237208046
10
-173.92500200000003
20
-54.575011000000003
10
-173.92500200000003
20
-40.675001000000009
42
0.41421356237312101
10
-174.02500200000003
20
-40.575001
10
-187.92501100000004
20
-40.575001
42
0.41421356237335516
10
-188.02501100000003
20
-40.675001000000009
10
-188.02501100000003
20
-54.575011000000003
42
0.41421356237312101
10
-187.92501100000004
20
-54.675011000000005
0
LWPOLYLINE
5
134
100
AcDbEntity
8
0
100
AcDbPolyline
90
8
70
1
43
0.0
10
-250.22500199999973
20
-35.625011000000001
42
0.41421356237221058
10
-250.12500200000002
20
-35.525011000000006
10
-250.12500200000005
20
-21.625001000000005
42
0.41421356237312101
10
-250.22500200000002
20
-21.525001000000003
10
-264.12501100000003
20
-21.525001000000003
42
0.41421356237291296
10
-264.22501100000005
20
-21.625001000000005
10
-264.22501100000005
20
-35.525011000000006
42
0.41421356237329016
10
-264.12501100000003
20
-35.625011000000001
0
LWPOLYLINE
5
135
100
AcDbEntity
8
0
100
AcDbPolyline
90
8
70
1
43
0.0
10
-21.625001999999725
20
-35.625011000000001
42
0.4142135623722496
10
-21.525002000000001
20
-35.525011000000006
10
-21.525002000000004
20
-21.625001000000005
42
0.41421356237308204
10
-21.625002000000002
20
-21.525001000000003
10
-35.525011000000006
20
-21.525001000000003
42
0.41421356237310802
10
-35.625011000000001
20
-21.625001000000005
10
-35.625011000000001
20
-35.525011000000006
42
0.41421356237309503
10
-35.525011000000006
20
-35.625011000000001
0
LWPOLYLINE
5
136
100
AcDbEntity
8
0
100
AcDbPolyline
90
8
70
1
43
0.0
10
-212.12500199999971
20
-35.625011000000001
42
0.41421356237221058
10
-212.025002
20
-35.525011000000006
10
-212.02500200000003
20
-21.625001000000005
42
0.41421356237312101
10
-212.12500199999999
20
-21.525001000000003
10
-226.02501100000001
20
-21.525001000000003
42
0.41421356237291296
10
-226.12501100000003
20
-21.625001000000005
10
-226.12501100000003
20
-35.525011000000006
42
0.41421356237329016
10
-226.02501100000001
20
-35.625011000000001
0
LWPOLYLINE
5
137
100
AcDbEntity
8
0
100
AcDbPolyline
90
8
70
1
43
0.0
10
-21.625001999999725
20
-16.575011000000003
42
0.41421356237228207
10
-21.525002000000004
20
-16.475011000000002
10
-21.525002000000004
20
-2.5750010000000003
42
0.41421356237309342
10
-21.625002000000002
20
-2.4750009999999989
10
-35.525011000000006
20
-2.4750009999999998
42
0.41421356237313894
10
-35.625011000000001
20
-2.575000999999999
10
-35.625011000000001
20
-16.475011000000002
42
0.41421356237308854
10
-35.525011000000006
20
-16.575011000000003
0
LWPOLYLINE
5
138
100
AcDbEntity
8
0
100
AcDbPolyline
90
20
70
1
43
0.0
10
-244.10016399999972
20
-18.225012
42
0.41421356237314055
10
-244.0001639999997
20
-18.325012000000033
10
-237.00015999999979
20
-18.325012000000001
42
0.41421356237301699
10
-236.9001599999998
20
-18.225012
10
-236.9001599999998
20
-16.575010999999979
10
-220.30014799999972
20
-16.575011000000003
10
-220.30014799999972
20
-18.225012
42
0.41421356237314055
10
-220.2001479999997
20
-18.325012000000015
10
-213.20014399999991
20
-18.325012000000001
42
0.41421356237286089
10
-213.10014399999989
20
-18.225012
10
-213.10014399999989
20
-3.6000000000000005
42
0.41421356237313567
10
-213.20014399999991
20
-3.4999999999999853
10
-221.55014899999972
20
-3.5000000000000009
10
-221.55014899999972
20
-2.5750010000000003
42
0.41421356237313728
10
-221.65014899999974
20
-2.4750009999999856
10
-235.55015899999975
20
-2.4750009999999998
42
0.41421356237301699
10
-235.65015899999977
20
-2.5750010000000012
10
-235.65015899999977
20
-3.5000000000000031
10
-244.0001639999997
20
-3.5000000000000004
42
0.41421356237286089
10
-244.10016399999972
20
-3.600000000000001
0
LWPOLYLINE
5
139
100
AcDbEntity
8
0
100
AcDbPolyline
90
8
70
1
43
0.0
10
-154.97500199999973
20
-92.775011000000021
42
0.41421356237241869
10
-154.87500200000002
20
-92.675011000000012
10
-154.87500200000002
20
-78.775001000000017
42
0.41421356237327711
10
-154.97500200000002
20
-78.675001000000009
10
-168.87501100000003
20
-78.675001000000009
42
0.41421356237338119
10
-168.97501100000002
20
-78.775001000000032
10
-168.97501100000002
20
-92.675011000000012
42
0.41421356237309503
10
-168.87501100000003
20
-92.775011000000021
0
LWPOLYLINE
5
140
100
AcDbEntity
8
0
100
AcDbPolyline
90
8
70
1
43
0.0
10
-212.12500199999971
20
-73.725011000000009
42
0.41421356237234064
10
-212.02500200000003
20
-73.625011000000015
10
-212.02500200000003
20
-59.725001000000013
42
0.41421356237312101
10
-212.12500199999999
20
-59.625001000000012
10
-226.02501100000001
20
-59.625001000000005
42
0.41421356237291296
10
-226.12501100000003
20
-59.725001000000013
10
-226.12501100000003
20
-73.625011000000015
42
0.41421356237327711
10
-226.02501100000001
20
-73.725011000000009
0
LWPOLYLINE
5
141
100
AcDbEntity
8
0
100
AcDbPolyline
90
8
70
1
43
0.0
10
-193.07500199999976
20
-73.725011000000009
42
0.41421356237202844
10
-192.97500200000002
20
-73.625011000000015
10
-192.97500200000005
20
-59.725001000000013
42
0.41421356237312101
10
-193.07500200000004
20
-59.625001000000012
10
-206.97501100000005
20
-59.625001000000005
42
0.41421356237286089
10
-207.07501100000005
20
-59.725001000000013
10
-207.07501100000005
20
-73.625011000000015
42
0.41421356237312101
10
-206.97501100000005
20
-73.725011000000009
0
LWPOLYLINE
5
142
100
AcDbEntity
8
0
100
AcDbPolyline
90
8
70
1
43
0.0
10
-193.07500199999976
20
-54.675011000000005
42
0.41421356237208046
10
-192.97500200000005
20
-54.575011000000003
10
-192.97500200000005
20
-40.675001000000009
42
0.41421356237312101
10
-193.07500200000004
20
-40.575001
10
-206.97501100000005
20
-40.575001
42
0.41421356237335516
10
-207.07501100000005
20
-40.675001000000009
10
-207.07501100000005
20
-54.575011000000003
42
0.41421356237312101
10
-206.97501100000005
20
-54.675011000000005
0
LWPOLYLINE
5
143
100
AcDbEntity
8
0
100
AcDbPolyline
90
8
70
1
43
0.0
10
-231.17500199999978
20
-92.775011000000021
42
0.41421356237252271
10
-231.07500200000004
20
-92.675011000000012
10
-231.07500200000004
20
-78.775001000000017
42
0.41421356237312101
10
-231.17500200000001
20
-78.675001000000009
10
-245.07501100000002
20
-78.675001000000009
42
0.41421356237293894
10
-245.17501100000004
20
-78.775001000000032
10
-245.17501100000004
20
-92.675011000000012
42
0.41421356237325113
10
-245.07501100000002
20
-92.775011000000021
0
LWPOLYLINE
5
144
100
AcDbEntity
8
0
100
AcDbPolyline
90
8
70
1
43
0.0
10
-2.5750019999997251
20
-73.725011000000009
42
0.41421356237228368
10
-2.4750020000000044
20
-73.625011000000015
10
-2.4750020000000017
20
-59.725001000000013
42
0.41421356237307227
10
-2.5750020000000085
20
-59.625001000000012
10
-16.475011000000002
20
-59.625001000000005
42
0.41421356237312101
10
-16.575011000000003
20
-59.725001000000013
10
-16.575011000000003
20
-73.625011000000015
42
0.41421356237304952
10
-16.475011000000002
20
-73.725011000000009
0
LWPOLYLINE
5
145
100
AcDbEntity
8
0
100
AcDbPolyline
90
8
70
1
43
0.0
10
-231.17500199999972
20
-35.625011000000001
42
0.41421356237221058
10
-231.07500200000001
20
-35.525011000000006
10
-231.07500200000004
20
-21.625001000000005
42
0.41421356237312101
10
-231.17500200000001
20
-21.525001000000003
10
-245.07501100000002
20
-21.525001000000003
42
0.41421356237291296
10
-245.17501100000004
20
-21.625001000000005
10
-245.17501100000004
20
-35.525011000000006
42
0.41421356237329016
10
-245.07501100000002
20
-35.625011000000001
0
LWPOLYLINE
5
146
100
AcDbEntity
8
0
100
AcDbPolyline
90
8
70
1
43
0.0
10
-40.675001999999729
20
-92.775011000000021
42
0.41421356237239265
10
-40.575002000000026
20
-92.675011000000012
10
-40.575002000000005
20
-78.775001000000017
42
0.41421356237314705
10
-40.675002000000013
20
-78.675001000000009
10
-54.575011000000003
20
-78.675001000000009
42
0.41421356237317308
10
-54.675011000000005
20
-78.775001000000032
10
-54.675011000000005
20
-92.675011000000012
42
0.41421356237299095
10
-54.575011000000003
20
-92.775011000000021
0
LWPOLYLINE
5
147
100
AcDbEntity
8
0
100
AcDbPolyline
90
8
70
1
43
0.0
10
-212.12500199999971
20
-54.675011000000005
42
0.41421356237223655
10
-212.025002
20
-54.575011000000003
10
-212.02500200000003
20
-40.675001000000009
42
0.41421356237312101
10
-212.12500199999999
20
-40.575001
10
-226.02501100000001
20
-40.575001
42
0.41421356237291296
10
-226.12501100000003
20
-40.675001000000009
10
-226.12501100000003
20
-54.575011000000003
42
0.41421356237327711
10
-226.02501100000001
20
-54.675011000000005
0
LWPOLYLINE
5
148
100
AcDbEntity
8
0
100
AcDbPolyline
90
8
70
1
43
0.0
10
-21.625001999999725
20
-54.675011000000005
42
0.41421356237232759
10
-21.525002000000001
20
-54.575011000000003
10
-21.525002000000004
20
-40.675001000000009
42
0.41421356237313406
10
-21.625002000000002
20
-40.575001
10
-35.525011000000006
20
-40.575001
42
0.41421356237316009
10
-35.625011000000001
20
-40.675001000000009
10
-35.625011000000001
20
-54.575011000000003
42
0.41421356237305601
10
-35.525011000000006
20
-54.675011000000005
0
LWPOLYLINE
5
149
100
AcDbEntity
8
0
100
AcDbPolyline
90
8
70
1
43
0.0
10
-59.725001999999741
20
-73.725011000000009
42
0.41421356237226259
10
-59.625002000000023
20
-73.625011000000015
10
-59.625002000000009
20
-59.725001000000013
42
0.41421356237314705
10
-59.725002000000018
20
-59.625001000000012
10
-73.625011000000015
20
-59.625001000000005
42
0.41421356237314705
10
-73.725011000000009
20
-59.725001000000013
10
-73.725011000000009
20
-73.625011000000015
42
0.41421356237304302
10
-73.625011000000015
20
-73.725011000000009
0
LWPOLYLINE
5
150
100
AcDbEntity
8
0
100
AcDbPolyline
90
8
70
1
43
0.0
10
-97.825001999999742
20
-35.625011000000001
42
0.4142135623722496
10
-97.725002000000032
20
-35.525011000000006
10
-97.725002000000032
20
-21.625001000000005
42
0.41421356237319906
10
-97.825002000000026
20
-21.525001000000003
10
-111.72501100000002
20
-21.525001000000003
42
0.41421356237310802
10
-111.82501100000003
20
-21.625001000000005
10
-111.82501100000003
20
-35.525011000000006
42
0.41421356237299095
10
-111.72501100000002
20
-35.625011000000001
0
LWPOLYLINE
5
151
100
AcDbEntity
8
0
100
AcDbPolyline
90
8
70
1
43
0.0
10
-212.12500199999977
20
-92.775011000000021
42
0.41421356237252271
10
-212.02500200000003
20
-92.675011000000012
10
-212.02500200000003
20
-78.775001000000017
42
0.41421356237312101
10
-212.12500199999999
20
-78.675001000000009
10
-226.02501100000001
20
-78.675001000000009
42
0.41421356237293894
10
-226.12501100000003
20
-78.775001000000032
10
-226.12501100000003
20
-92.675011000000012
42
0.41421356237325113
10
-226.02501100000001
20
-92.775011000000021
0
LWPOLYLINE
5
152
100
AcDbEntity
8
0
100
AcDbPolyline
90
8
70
1
43
0.0
10
-193.07500199999978
20
-92.775011000000021
42
0.41421356237236662
10
-192.97500200000002
20
-92.675011000000012
10
-192.97500200000005
20
-78.775001000000017
42
0.41421356237312101
10
-193.07500200000004
20
-78.675001000000009
10
-206.97501100000005
20
-78.675001000000009
42
0.41421356237338119
10
-207.07501100000005
20
-78.775001000000032
10
-207.07501100000005
20
-92.675011000000012
42
0.41421356237309503
10
-206.97501100000005
20
-92.775011000000021
0
LWPOLYLINE
5
153
100
AcDbEntity
8
0
100
AcDbPolyline
90
8
70
1
43
0.0
10
-269.27500199999974
20
-92.775011000000021
42
0.41421356237236662
10
-269.17500200000001
20
-92.675011000000012
10
-269.17500200000001
20
-78.775001000000017
42
0.41421356237312101
10
-269.27500200000003
20
-78.675001000000009
10
-283.17501100000004
20
-78.675001000000009
42
0.41421356237338119
10
-283.27501100000001
20
-78.775001000000032
10
-283.27501100000001
20
-92.675011000000012
42
0.41421356237309503
10
-283.17501100000004
20
-92.775011000000021
0
LWPOLYLINE
5
154
100
AcDbEntity
8
0
100
AcDbPolyline
90
8
70
1
43
0.0
10
-59.725001999999741
20
-54.675011000000005
42
0.41421356237234064
10
-59.625002000000009
20
-54.575011000000003
10
-59.625002000000009
20
-40.675001000000009
42
0.41421356237309503
10
-59.725002000000018
20
-40.575001
10
-73.625011000000015
20
-40.575001
42
0.414213562373069
10
-73.725011000000009
20
-40.675001000000009
10
-73.725011000000009
20
-54.575011000000003
42
0.41421356237304302
10
-73.625011000000015
20
-54.675011000000005
0
LWPOLYLINE
5
155
100
AcDbEntity
8
0
100
AcDbPolyline
90
8
70
1
43
0.0
10
-231.17500199999972
20
-54.675011000000005
42
0.41421356237223655
10
-231.07500200000001
20
-54.575011000000003
10
-231.07500200000004
20
-40.675001000000009
42
0.41421356237312101
10
-231.17500200000001
20
-40.575001
10
-245.07501100000002
20
-40.575001
42
0.41421356237291296
10
-245.17501100000004
20
-40.675001000000009
10
-245.17501100000004
20
-54.575011000000003
42
0.41421356237327711
10
-245.07501100000002
20
-54.675011000000005
0
LWPOLYLINE
5
156
100
AcDbEntity
8
0
100
AcDbPolyline
90
8
70
1
43
0.0
10
-231.17500199999972
20
-73.725011000000009
42
0.41421356237234064
10
-231.07500200000004
20
-73.625011000000015
10
-231.07500200000004
20
-59.725001000000013
42
0.41421356237312101
10
-231.17500200000001
20
-59.625001000000012
10
-245.07501100000002
20
-59.625001000000005
42
0.41421356237291296
10
-245.17501100000004
20
-59.725001000000013
10
-245.17501100000004
20
-73.625011000000015
42
0.41421356237327711
10
-245.07501100000002
20
-73.725011000000009
0
LWPOLYLINE
5
157
100
AcDbEntity
8
0
100
AcDbPolyline
90
8
70
1
43
0.0
10
-269.27500199999974
20
-73.725011000000009
42
0.41421356237202844
10
-269.17500200000001
20
-73.625011000000015
10
-269.17500200000001
20
-59.725001000000013
42
0.41421356237312101
10
-269.27500200000003
20
-59.625001000000012
10
-283.17501100000004
20
-59.625001000000005
42
0.41421356237286089
10
-283.27501100000001
20
-59.725001000000013
10
-283.27501100000001
20
-73.625011000000015
42
0.41421356237312101
10
-283.17501100000004
20
-73.725011000000009
0
LWPOLYLINE
5
158
100
AcDbEntity
8
0
100
AcDbPolyline
90
8
70
1
43
0.0
10
-40.675001999999729
20
-54.675011000000005
42
0.41421356237221058
10
-40.575002000000005
20
-54.575011000000003
10
-40.575002000000005
20
-40.675001000000009
42
0.41421356237314705
10
-40.675002000000013
20
-40.575001
10
-54.575011000000003
20
-40.575001
42
0.41421356237314705
10
-54.675011000000005
20
-40.675001000000009
10
-54.675011000000005
20
-54.575011000000003
42
0.41421356237314705
10
-54.575011000000003
20
-54.675011000000005
0
LWPOLYLINE
5
159
100
AcDbEntity
8
0
100
AcDbPolyline
90
8
70
1
43
0.0
10
-154.97500199999973
20
-35.625011000000001
42
0.4142135623722496
10
-154.87500200000002
20
-35.525011000000006
10
-154.87500200000002
20
-21.625001000000005
42
0.41421356237319906
10
-154.97500200000002
20
-21.525001000000003
10
-168.87501100000003
20
-21.525001000000003
42
0.41421356237286089
10
-168.97501100000002
20
-21.625001000000005
10
-168.97501100000002
20
-35.525011000000006
42
0.41421356237313406
10
-168.87501100000003
20
-35.625011000000001
0
LWPOLYLINE
5
160
100
AcDbEntity
8
0
100
AcDbPolyline
90
8
70
1
43
0.0
10
-21.625001999999725
20
-92.775011000000021
42
0.41421356237236662
10
-21.525001999999994
20
-92.675011000000012
10
-21.525002000000004
20
-78.775001000000017
42
0.41421356237313406
10
-21.625002000000002
20
-78.675001000000009
10
-35.525011000000006
20
-78.675001000000009
42
0.41421356237318607
10
-35.625011000000001
20
-78.775001000000032
10
-35.625011000000001
20
-92.675011000000012
42
0.41421356237312101
10
-35.525011000000006
20
-92.775011000000021
0
LWPOLYLINE
5
161
100
AcDbEntity
8
0
100
AcDbPolyline
90
8
70
1
43
0.0
10
-2.5750019999997251
20
-92.775011000000021
42
0.4142135623724203
10
-2.475002000000011
20
-92.675011000000012
10
-2.4750020000000017
20
-78.775001000000017
42
0.41421356237312429
10
-2.5750020000000085
20
-78.675001000000009
10
-16.475011000000002
20
-78.675001000000009
42
0.41421356237315354
10
-16.575011000000003
20
-78.775001000000032
10
-16.575011000000003
20
-92.675011000000012
42
0.41421356237312101
10
-16.475011000000002
20
-92.775011000000021
0
LWPOLYLINE
5
162
100
AcDbEntity
8
0
100
AcDbPolyline
90
8
70
1
43
0.0
10
0
20
-0.50000000000000722
42
0.41421356237309936
10
-0.5
20
1.057566651061919e-28
10
-285.25019199999969
20
8.8817841970012523e-15
42
0.41421356237312867
10
-285.75019199999974
20
-0.49999999999998335
10
-285.75019199999974
20
-94.750063999999867
42
0.41421356237313667
10
-285.25019199999969
20
-95.250063999999881
10
-0.50000000000000711
20
-95.250063999999981
42
0.41421356237310003
10
8.5348395018058909e-15
20
-94.750063999999981
0
ENDSEC
0
SECTION
2
OBJECTS
0
DICTIONARY
5
C
100
AcDbDictionary
3
ACAD_GROUP
350
D
3
ACAD_MLINESTYLE
350
17
0
DICTIONARY
5
D
100
AcDbDictionary
0
DICTIONARY
5
1A
330
C
100
AcDbDictionary
0
DICTIONARY
5
17
100
AcDbDictionary
0
ENDSEC
0
EOF
